P2
10 2
255
83 61 70 71 66 67 59 62 59 62
67 72 75 76 75 74 69 67 65 69